<mxfile host="app.diagrams.net" agent="Mozilla/5.0 (Windows NT 10.0; Win64; x64) AppleWebKit/537.36 (KHTML, like Gecko) Chrome/135.0.0.0 Safari/537.36 Edg/135.0.0.0" version="26.2.8" pages="2">
  <diagram name="第 1 页" id="kF5ivKEgYfZ40ZFE1cfE">
    <mxGraphModel dx="2278" dy="2445" grid="1" gridSize="10" guides="1" tooltips="1" connect="1" arrows="1" fold="1" page="1" pageScale="1" pageWidth="827" pageHeight="1169" math="0" shadow="0">
      <root>
        <mxCell id="0" />
        <mxCell id="1" parent="0" />
        <mxCell id="b0qtBK4VZe1DbYoe0uhG-2" value="" style="whiteSpace=wrap;strokeWidth=2;fillColor=#e1d5e7;strokeColor=#9673a6;" vertex="1" parent="1">
          <mxGeometry x="2280" y="65" width="300" height="650" as="geometry" />
        </mxCell>
        <mxCell id="b0qtBK4VZe1DbYoe0uhG-4" value="" style="whiteSpace=wrap;strokeWidth=2;fillColor=#d5e8d4;strokeColor=#82b366;" vertex="1" parent="1">
          <mxGeometry x="1050" y="65" width="330" height="665" as="geometry" />
        </mxCell>
        <mxCell id="b0qtBK4VZe1DbYoe0uhG-5" value="" style="whiteSpace=wrap;strokeWidth=2;fillColor=#dae8fc;strokeColor=#6c8ebf;" vertex="1" parent="1">
          <mxGeometry x="520" y="70" width="470" height="660" as="geometry" />
        </mxCell>
        <mxCell id="b0qtBK4VZe1DbYoe0uhG-6" value="C端-学校网站嵌入" style="whiteSpace=wrap;strokeWidth=2;" vertex="1" parent="1">
          <mxGeometry x="545" y="130" width="175" height="54" as="geometry" />
        </mxCell>
        <mxCell id="b0qtBK4VZe1DbYoe0uhG-7" value="文本对话框" style="whiteSpace=wrap;strokeWidth=2;" vertex="1" parent="1">
          <mxGeometry x="800" y="180" width="140" height="54" as="geometry" />
        </mxCell>
        <mxCell id="b0qtBK4VZe1DbYoe0uhG-8" value="C端-微信小程序" style="whiteSpace=wrap;strokeWidth=2;" vertex="1" parent="1">
          <mxGeometry x="545" y="270" width="171" height="54" as="geometry" />
        </mxCell>
        <mxCell id="zlA2tzmJXrDpW9caARPn-2" value="" style="edgeStyle=orthogonalEdgeStyle;rounded=0;orthogonalLoop=1;jettySize=auto;html=1;" edge="1" parent="1" source="b0qtBK4VZe1DbYoe0uhG-9" target="b0qtBK4VZe1DbYoe0uhG-10">
          <mxGeometry relative="1" as="geometry" />
        </mxCell>
        <mxCell id="b0qtBK4VZe1DbYoe0uhG-9" value="B端-管理后台" style="whiteSpace=wrap;strokeWidth=2;" vertex="1" parent="1">
          <mxGeometry x="537" y="561" width="143" height="54" as="geometry" />
        </mxCell>
        <mxCell id="b0qtBK4VZe1DbYoe0uhG-10" value="停机维护/知识库管理/数据可视化" style="whiteSpace=wrap;strokeWidth=2;" vertex="1" parent="1">
          <mxGeometry x="750" y="549" width="210" height="78" as="geometry" />
        </mxCell>
        <mxCell id="b0qtBK4VZe1DbYoe0uhG-11" value="API网关" style="whiteSpace=wrap;strokeWidth=2;" vertex="1" parent="1">
          <mxGeometry x="1070" y="110" width="70" height="510" as="geometry" />
        </mxCell>
        <mxCell id="b0qtBK4VZe1DbYoe0uhG-12" value="问答服务" style="whiteSpace=wrap;strokeWidth=2;" vertex="1" parent="1">
          <mxGeometry x="1172" y="411" width="164" height="54" as="geometry" />
        </mxCell>
        <mxCell id="b0qtBK4VZe1DbYoe0uhG-13" value="会话管理服务" style="whiteSpace=wrap;strokeWidth=2;" vertex="1" parent="1">
          <mxGeometry x="1178" y="110" width="156" height="54" as="geometry" />
        </mxCell>
        <mxCell id="b0qtBK4VZe1DbYoe0uhG-14" value="知识库管理服务" style="whiteSpace=wrap;strokeWidth=2;" vertex="1" parent="1">
          <mxGeometry x="1172" y="290" width="166" height="54" as="geometry" />
        </mxCell>
        <mxCell id="b0qtBK4VZe1DbYoe0uhG-15" value="数据分析服务" style="whiteSpace=wrap;strokeWidth=2;" vertex="1" parent="1">
          <mxGeometry x="1177" y="189" width="156" height="54" as="geometry" />
        </mxCell>
        <mxCell id="b0qtBK4VZe1DbYoe0uhG-21" value="知识库数据库" style="whiteSpace=wrap;strokeWidth=2;" vertex="1" parent="1">
          <mxGeometry x="2290" y="120" width="156" height="50" as="geometry" />
        </mxCell>
        <mxCell id="b0qtBK4VZe1DbYoe0uhG-23" value="分析结果数据库" style="whiteSpace=wrap;strokeWidth=2;" vertex="1" parent="1">
          <mxGeometry x="2290" y="243" width="136" height="54" as="geometry" />
        </mxCell>
        <mxCell id="b0qtBK4VZe1DbYoe0uhG-24" value="MongoDB" style="shape=cylinder3;boundedLbl=1;backgroundOutline=1;size=10;strokeWidth=2;whiteSpace=wrap;" vertex="1" parent="1">
          <mxGeometry x="2445" y="390" width="124" height="70" as="geometry" />
        </mxCell>
        <mxCell id="b0qtBK4VZe1DbYoe0uhG-25" value="日志存储" style="whiteSpace=wrap;strokeWidth=2;" vertex="1" parent="1">
          <mxGeometry x="2290" y="344" width="124" height="54" as="geometry" />
        </mxCell>
        <mxCell id="b0qtBK4VZe1DbYoe0uhG-27" value="向量数据库" style="shape=cylinder3;boundedLbl=1;backgroundOutline=1;size=10;strokeWidth=2;whiteSpace=wrap;" vertex="1" parent="1">
          <mxGeometry x="2490" y="111" width="79" height="68" as="geometry" />
        </mxCell>
        <mxCell id="b0qtBK4VZe1DbYoe0uhG-58" value="&lt;font style=&quot;font-size: 19px;&quot;&gt;用户层&lt;/font&gt;" style="rounded=0;whiteSpace=wrap;html=1;fillColor=#f8cecc;strokeColor=#b85450;" vertex="1" parent="1">
          <mxGeometry x="520" y="-50" width="470" height="100" as="geometry" />
        </mxCell>
        <mxCell id="b0qtBK4VZe1DbYoe0uhG-66" value="&lt;font style=&quot;font-size: 19px;&quot;&gt;服务层&lt;/font&gt;" style="rounded=0;whiteSpace=wrap;html=1;fillColor=#f8cecc;strokeColor=#b85450;" vertex="1" parent="1">
          <mxGeometry x="1050" y="-50" width="1180" height="100" as="geometry" />
        </mxCell>
        <mxCell id="b0qtBK4VZe1DbYoe0uhG-87" value="&lt;font style=&quot;font-size: 19px;&quot;&gt;数据层&lt;/font&gt;" style="rounded=0;whiteSpace=wrap;html=1;fillColor=#f8cecc;strokeColor=#b85450;" vertex="1" parent="1">
          <mxGeometry x="2280" y="-50" width="300" height="100" as="geometry" />
        </mxCell>
        <mxCell id="b0qtBK4VZe1DbYoe0uhG-97" value="账户数据库" style="whiteSpace=wrap;strokeWidth=2;" vertex="1" parent="1">
          <mxGeometry x="2290" y="440" width="124" height="54" as="geometry" />
        </mxCell>
        <mxCell id="b0qtBK4VZe1DbYoe0uhG-99" value="系统配置数据库" style="whiteSpace=wrap;strokeWidth=2;" vertex="1" parent="1">
          <mxGeometry x="2290" y="531" width="124" height="54" as="geometry" />
        </mxCell>
        <mxCell id="zlA2tzmJXrDpW9caARPn-3" value="" style="endArrow=classic;html=1;rounded=0;exitX=1;exitY=0.5;exitDx=0;exitDy=0;entryX=0;entryY=0.5;entryDx=0;entryDy=0;" edge="1" parent="1" source="b0qtBK4VZe1DbYoe0uhG-6" target="b0qtBK4VZe1DbYoe0uhG-7">
          <mxGeometry width="50" height="50" relative="1" as="geometry">
            <mxPoint x="790" y="150" as="sourcePoint" />
            <mxPoint x="840" y="100" as="targetPoint" />
          </mxGeometry>
        </mxCell>
        <mxCell id="zlA2tzmJXrDpW9caARPn-4" value="" style="endArrow=classic;html=1;rounded=0;exitX=1;exitY=0.5;exitDx=0;exitDy=0;entryX=0;entryY=0.75;entryDx=0;entryDy=0;" edge="1" parent="1" source="b0qtBK4VZe1DbYoe0uhG-8" target="b0qtBK4VZe1DbYoe0uhG-7">
          <mxGeometry width="50" height="50" relative="1" as="geometry">
            <mxPoint x="780" y="310" as="sourcePoint" />
            <mxPoint x="830" y="260" as="targetPoint" />
          </mxGeometry>
        </mxCell>
        <mxCell id="zlA2tzmJXrDpW9caARPn-5" value="" style="group" vertex="1" connectable="0" parent="1">
          <mxGeometry x="1459.5" y="411" width="530.5" height="380" as="geometry" />
        </mxCell>
        <mxCell id="b0qtBK4VZe1DbYoe0uhG-70" value="" style="rounded=0;whiteSpace=wrap;html=1;fillColor=#fff2cc;strokeColor=#d6b656;" vertex="1" parent="zlA2tzmJXrDpW9caARPn-5">
          <mxGeometry width="519.4479166666666" height="320" as="geometry" />
        </mxCell>
        <mxCell id="b0qtBK4VZe1DbYoe0uhG-16" value="大模型调用" style="whiteSpace=wrap;strokeWidth=2;" vertex="1" parent="zlA2tzmJXrDpW9caARPn-5">
          <mxGeometry x="20.99895833333333" y="131" width="154.72916666666663" height="54" as="geometry" />
        </mxCell>
        <mxCell id="b0qtBK4VZe1DbYoe0uhG-18" value="互联网搜索模块" style="whiteSpace=wrap;strokeWidth=2;" vertex="1" parent="zlA2tzmJXrDpW9caARPn-5">
          <mxGeometry x="331.56249999999994" y="131" width="137.0458333333333" height="54" as="geometry" />
        </mxCell>
        <mxCell id="b0qtBK4VZe1DbYoe0uhG-69" value="自建知识库检索" style="whiteSpace=wrap;strokeWidth=2;" vertex="1" parent="zlA2tzmJXrDpW9caARPn-5">
          <mxGeometry x="14.36770833333333" y="41" width="166.88645833333328" height="54" as="geometry" />
        </mxCell>
        <mxCell id="b0qtBK4VZe1DbYoe0uhG-73" value="结果输出" style="whiteSpace=wrap;strokeWidth=2;" vertex="1" parent="zlA2tzmJXrDpW9caARPn-5">
          <mxGeometry x="331.56249999999994" y="240" width="137.0458333333333" height="54" as="geometry" />
        </mxCell>
        <mxCell id="b0qtBK4VZe1DbYoe0uhG-72" value="" style="edgeStyle=orthogonalEdgeStyle;rounded=0;orthogonalLoop=1;jettySize=auto;html=1;" edge="1" parent="zlA2tzmJXrDpW9caARPn-5" source="b0qtBK4VZe1DbYoe0uhG-16" target="b0qtBK4VZe1DbYoe0uhG-18">
          <mxGeometry relative="1" as="geometry" />
        </mxCell>
        <mxCell id="b0qtBK4VZe1DbYoe0uhG-71" value="" style="edgeStyle=orthogonalEdgeStyle;rounded=0;orthogonalLoop=1;jettySize=auto;html=1;" edge="1" parent="zlA2tzmJXrDpW9caARPn-5" source="b0qtBK4VZe1DbYoe0uhG-69" target="b0qtBK4VZe1DbYoe0uhG-16">
          <mxGeometry relative="1" as="geometry" />
        </mxCell>
        <mxCell id="b0qtBK4VZe1DbYoe0uhG-74" value="" style="edgeStyle=orthogonalEdgeStyle;rounded=0;orthogonalLoop=1;jettySize=auto;html=1;" edge="1" parent="zlA2tzmJXrDpW9caARPn-5" source="b0qtBK4VZe1DbYoe0uhG-18" target="b0qtBK4VZe1DbYoe0uhG-73">
          <mxGeometry relative="1" as="geometry" />
        </mxCell>
        <mxCell id="b0qtBK4VZe1DbYoe0uhG-76" value="" style="endArrow=classic;html=1;rounded=0;exitX=0.5;exitY=1;exitDx=0;exitDy=0;entryX=0;entryY=0.5;entryDx=0;entryDy=0;" edge="1" parent="zlA2tzmJXrDpW9caARPn-5" source="b0qtBK4VZe1DbYoe0uhG-16" target="b0qtBK4VZe1DbYoe0uhG-73">
          <mxGeometry width="50" height="50" relative="1" as="geometry">
            <mxPoint x="-182.359375" y="181" as="sourcePoint" />
            <mxPoint x="-127.09895833333331" y="131" as="targetPoint" />
          </mxGeometry>
        </mxCell>
        <mxCell id="zlA2tzmJXrDpW9caARPn-8" value="" style="group" vertex="1" connectable="0" parent="1">
          <mxGeometry x="1460" y="230" width="520" height="150" as="geometry" />
        </mxCell>
        <mxCell id="b0qtBK4VZe1DbYoe0uhG-81" value="" style="edgeStyle=orthogonalEdgeStyle;rounded=0;orthogonalLoop=1;jettySize=auto;html=1;" edge="1" parent="zlA2tzmJXrDpW9caARPn-8" source="b0qtBK4VZe1DbYoe0uhG-30" target="b0qtBK4VZe1DbYoe0uhG-19">
          <mxGeometry relative="1" as="geometry" />
        </mxCell>
        <mxCell id="b0qtBK4VZe1DbYoe0uhG-78" value="" style="rounded=0;whiteSpace=wrap;html=1;fillColor=#fff2cc;strokeColor=#d6b656;" vertex="1" parent="zlA2tzmJXrDpW9caARPn-8">
          <mxGeometry width="520" height="150" as="geometry" />
        </mxCell>
        <mxCell id="zlA2tzmJXrDpW9caARPn-7" value="" style="edgeStyle=orthogonalEdgeStyle;rounded=0;orthogonalLoop=1;jettySize=auto;html=1;" edge="1" parent="zlA2tzmJXrDpW9caARPn-8" source="b0qtBK4VZe1DbYoe0uhG-30" target="b0qtBK4VZe1DbYoe0uhG-19">
          <mxGeometry relative="1" as="geometry" />
        </mxCell>
        <mxCell id="b0qtBK4VZe1DbYoe0uhG-30" value="文件解析服务" style="whiteSpace=wrap;strokeWidth=2;" vertex="1" parent="zlA2tzmJXrDpW9caARPn-8">
          <mxGeometry x="192.59259259259258" y="44.209999999999994" width="134.8148148148148" height="65.79" as="geometry" />
        </mxCell>
        <mxCell id="b0qtBK4VZe1DbYoe0uhG-19" value="知识库更新引擎" style="whiteSpace=wrap;strokeWidth=2;" vertex="1" parent="zlA2tzmJXrDpW9caARPn-8">
          <mxGeometry x="365.92592592592587" y="50.099999999999994" width="134.8148148148148" height="54" as="geometry" />
        </mxCell>
        <mxCell id="b0qtBK4VZe1DbYoe0uhG-79" value="文件上传存储" style="whiteSpace=wrap;strokeWidth=2;" vertex="1" parent="zlA2tzmJXrDpW9caARPn-8">
          <mxGeometry x="9.62962962962963" y="44.209999999999994" width="134.8148148148148" height="65.79" as="geometry" />
        </mxCell>
        <mxCell id="b0qtBK4VZe1DbYoe0uhG-80" value="" style="edgeStyle=orthogonalEdgeStyle;rounded=0;orthogonalLoop=1;jettySize=auto;html=1;" edge="1" parent="zlA2tzmJXrDpW9caARPn-8" source="b0qtBK4VZe1DbYoe0uhG-79" target="b0qtBK4VZe1DbYoe0uhG-30">
          <mxGeometry relative="1" as="geometry" />
        </mxCell>
        <mxCell id="zlA2tzmJXrDpW9caARPn-9" value="" style="group" vertex="1" connectable="0" parent="1">
          <mxGeometry x="1460" y="80" width="520" height="109" as="geometry" />
        </mxCell>
        <mxCell id="b0qtBK4VZe1DbYoe0uhG-83" value="" style="rounded=0;whiteSpace=wrap;html=1;fillColor=#fff2cc;strokeColor=#d6b656;" vertex="1" parent="zlA2tzmJXrDpW9caARPn-9">
          <mxGeometry width="520" height="109" as="geometry" />
        </mxCell>
        <mxCell id="b0qtBK4VZe1DbYoe0uhG-22" value="会话记录" style="whiteSpace=wrap;strokeWidth=2;" vertex="1" parent="zlA2tzmJXrDpW9caARPn-9">
          <mxGeometry x="17.739872068230277" y="30" width="141.9189765458422" height="54" as="geometry" />
        </mxCell>
        <mxCell id="b0qtBK4VZe1DbYoe0uhG-86" value="系统配置" style="whiteSpace=wrap;strokeWidth=2;" vertex="1" parent="zlA2tzmJXrDpW9caARPn-9">
          <mxGeometry x="188.4861407249467" y="30" width="141.9189765458422" height="54" as="geometry" />
        </mxCell>
        <mxCell id="b0qtBK4VZe1DbYoe0uhG-88" value="账号认证" style="whiteSpace=wrap;strokeWidth=2;" vertex="1" parent="zlA2tzmJXrDpW9caARPn-9">
          <mxGeometry x="353.68869936034116" y="30" width="137.48400852878464" height="54" as="geometry" />
        </mxCell>
        <mxCell id="zlA2tzmJXrDpW9caARPn-10" value="" style="group" vertex="1" connectable="0" parent="1">
          <mxGeometry x="2002" y="100" width="224" height="270" as="geometry" />
        </mxCell>
        <mxCell id="b0qtBK4VZe1DbYoe0uhG-84" value="" style="rounded=0;whiteSpace=wrap;html=1;fillColor=#fff2cc;strokeColor=#d6b656;" vertex="1" parent="zlA2tzmJXrDpW9caARPn-10">
          <mxGeometry width="224" height="270" as="geometry" />
        </mxCell>
        <mxCell id="b0qtBK4VZe1DbYoe0uhG-20" value="高频问题分析" style="whiteSpace=wrap;strokeWidth=2;" vertex="1" parent="zlA2tzmJXrDpW9caARPn-10">
          <mxGeometry x="39.5" y="82.55395683453237" width="145" height="104.89208633093524" as="geometry" />
        </mxCell>
        <mxCell id="zlA2tzmJXrDpW9caARPn-11" value="" style="shape=flexArrow;endArrow=classic;html=1;rounded=0;width=10;endSize=5.866666666666667;entryX=-0.009;entryY=0.436;entryDx=0;entryDy=0;entryPerimeter=0;exitX=0.996;exitY=0.434;exitDx=0;exitDy=0;exitPerimeter=0;" edge="1" parent="1">
          <mxGeometry width="50" height="50" relative="1" as="geometry">
            <mxPoint x="990.1200000000003" y="356.44000000000005" as="sourcePoint" />
            <mxPoint x="1049.0300000000002" y="354.9399999999996" as="targetPoint" />
          </mxGeometry>
        </mxCell>
        <mxCell id="zlA2tzmJXrDpW9caARPn-12" value="" style="endArrow=classic;html=1;rounded=0;exitX=1;exitY=0.5;exitDx=0;exitDy=0;" edge="1" parent="1" source="b0qtBK4VZe1DbYoe0uhG-15">
          <mxGeometry width="50" height="50" relative="1" as="geometry">
            <mxPoint x="1350" y="220" as="sourcePoint" />
            <mxPoint x="2000" y="210" as="targetPoint" />
          </mxGeometry>
        </mxCell>
        <mxCell id="zlA2tzmJXrDpW9caARPn-13" value="" style="endArrow=classic;html=1;rounded=0;exitX=1;exitY=0.5;exitDx=0;exitDy=0;" edge="1" parent="1" source="b0qtBK4VZe1DbYoe0uhG-13">
          <mxGeometry width="50" height="50" relative="1" as="geometry">
            <mxPoint x="1350" y="170" as="sourcePoint" />
            <mxPoint x="1460" y="137" as="targetPoint" />
          </mxGeometry>
        </mxCell>
        <mxCell id="zlA2tzmJXrDpW9caARPn-14" value="" style="endArrow=classic;html=1;rounded=0;exitX=1;exitY=0.5;exitDx=0;exitDy=0;" edge="1" parent="1" source="b0qtBK4VZe1DbYoe0uhG-14">
          <mxGeometry width="50" height="50" relative="1" as="geometry">
            <mxPoint x="1320" y="440" as="sourcePoint" />
            <mxPoint x="1460" y="317" as="targetPoint" />
          </mxGeometry>
        </mxCell>
        <mxCell id="zlA2tzmJXrDpW9caARPn-15" value="" style="endArrow=classic;html=1;rounded=0;exitX=1;exitY=0.5;exitDx=0;exitDy=0;entryX=0.001;entryY=0.084;entryDx=0;entryDy=0;entryPerimeter=0;" edge="1" parent="1" source="b0qtBK4VZe1DbYoe0uhG-12" target="b0qtBK4VZe1DbYoe0uhG-70">
          <mxGeometry width="50" height="50" relative="1" as="geometry">
            <mxPoint x="1340" y="480" as="sourcePoint" />
            <mxPoint x="1390" y="430" as="targetPoint" />
          </mxGeometry>
        </mxCell>
        <mxCell id="zlA2tzmJXrDpW9caARPn-16" value="" style="endArrow=classic;html=1;rounded=0;exitX=1;exitY=0.5;exitDx=0;exitDy=0;entryX=0;entryY=0.5;entryDx=0;entryDy=0;entryPerimeter=0;" edge="1" parent="1" source="b0qtBK4VZe1DbYoe0uhG-21" target="b0qtBK4VZe1DbYoe0uhG-27">
          <mxGeometry width="50" height="50" relative="1" as="geometry">
            <mxPoint x="2340" y="320" as="sourcePoint" />
            <mxPoint x="2390" y="270" as="targetPoint" />
          </mxGeometry>
        </mxCell>
        <mxCell id="zlA2tzmJXrDpW9caARPn-18" value="" style="endArrow=classic;html=1;rounded=0;exitX=1;exitY=0.5;exitDx=0;exitDy=0;" edge="1" parent="1" source="b0qtBK4VZe1DbYoe0uhG-23" target="b0qtBK4VZe1DbYoe0uhG-24">
          <mxGeometry width="50" height="50" relative="1" as="geometry">
            <mxPoint x="2470" y="260" as="sourcePoint" />
            <mxPoint x="2520" y="210" as="targetPoint" />
          </mxGeometry>
        </mxCell>
        <mxCell id="zlA2tzmJXrDpW9caARPn-19" value="" style="endArrow=classic;html=1;rounded=0;exitX=1;exitY=0.5;exitDx=0;exitDy=0;entryX=0.145;entryY=0;entryDx=0;entryDy=2.9;entryPerimeter=0;" edge="1" parent="1" source="b0qtBK4VZe1DbYoe0uhG-25" target="b0qtBK4VZe1DbYoe0uhG-24">
          <mxGeometry width="50" height="50" relative="1" as="geometry">
            <mxPoint x="2520" y="340" as="sourcePoint" />
            <mxPoint x="2570" y="290" as="targetPoint" />
          </mxGeometry>
        </mxCell>
        <mxCell id="zlA2tzmJXrDpW9caARPn-20" value="" style="endArrow=classic;html=1;rounded=0;exitX=1;exitY=0.5;exitDx=0;exitDy=0;" edge="1" parent="1" source="b0qtBK4VZe1DbYoe0uhG-97">
          <mxGeometry width="50" height="50" relative="1" as="geometry">
            <mxPoint x="2420" y="480" as="sourcePoint" />
            <mxPoint x="2450" y="450" as="targetPoint" />
          </mxGeometry>
        </mxCell>
        <mxCell id="zlA2tzmJXrDpW9caARPn-21" value="" style="endArrow=classic;html=1;rounded=0;exitX=1;exitY=0.5;exitDx=0;exitDy=0;entryX=0.5;entryY=1;entryDx=0;entryDy=0;entryPerimeter=0;" edge="1" parent="1" source="b0qtBK4VZe1DbYoe0uhG-99" target="b0qtBK4VZe1DbYoe0uhG-24">
          <mxGeometry width="50" height="50" relative="1" as="geometry">
            <mxPoint x="2440" y="550" as="sourcePoint" />
            <mxPoint x="2490" y="500" as="targetPoint" />
          </mxGeometry>
        </mxCell>
      </root>
    </mxGraphModel>
  </diagram>
  <diagram id="i2LZ1irWIPoCR0dbc0Cz" name="第 2 页">
    <mxGraphModel dx="1790" dy="1003" grid="1" gridSize="10" guides="1" tooltips="1" connect="1" arrows="1" fold="1" page="1" pageScale="1" pageWidth="827" pageHeight="1169" math="0" shadow="0">
      <root>
        <mxCell id="0" />
        <mxCell id="1" parent="0" />
        <mxCell id="28P_qF4lR5tQPxpycGQv-1" value="User" style="shape=umlLifeline;perimeter=lifelinePerimeter;whiteSpace=wrap;container=1;dropTarget=0;collapsible=0;recursiveResize=0;outlineConnect=0;portConstraint=eastwest;newEdgeStyle={&quot;edgeStyle&quot;:&quot;elbowEdgeStyle&quot;,&quot;elbow&quot;:&quot;vertical&quot;,&quot;curved&quot;:0,&quot;rounded&quot;:0};size=65;" vertex="1" parent="1">
          <mxGeometry x="20" y="20" width="150" height="743" as="geometry" />
        </mxCell>
        <mxCell id="28P_qF4lR5tQPxpycGQv-2" value="API_Gateway" style="shape=umlLifeline;perimeter=lifelinePerimeter;whiteSpace=wrap;container=1;dropTarget=0;collapsible=0;recursiveResize=0;outlineConnect=0;portConstraint=eastwest;newEdgeStyle={&quot;edgeStyle&quot;:&quot;elbowEdgeStyle&quot;,&quot;elbow&quot;:&quot;vertical&quot;,&quot;curved&quot;:0,&quot;rounded&quot;:0};size=65;" vertex="1" parent="1">
          <mxGeometry x="281" y="20" width="150" height="743" as="geometry" />
        </mxCell>
        <mxCell id="28P_qF4lR5tQPxpycGQv-3" value="QA_Service" style="shape=umlLifeline;perimeter=lifelinePerimeter;whiteSpace=wrap;container=1;dropTarget=0;collapsible=0;recursiveResize=0;outlineConnect=0;portConstraint=eastwest;newEdgeStyle={&quot;edgeStyle&quot;:&quot;elbowEdgeStyle&quot;,&quot;elbow&quot;:&quot;vertical&quot;,&quot;curved&quot;:0,&quot;rounded&quot;:0};size=65;" vertex="1" parent="1">
          <mxGeometry x="481" y="20" width="150" height="743" as="geometry" />
        </mxCell>
        <mxCell id="28P_qF4lR5tQPxpycGQv-4" value="Knowledge_Base" style="shape=umlLifeline;perimeter=lifelinePerimeter;whiteSpace=wrap;container=1;dropTarget=0;collapsible=0;recursiveResize=0;outlineConnect=0;portConstraint=eastwest;newEdgeStyle={&quot;edgeStyle&quot;:&quot;elbowEdgeStyle&quot;,&quot;elbow&quot;:&quot;vertical&quot;,&quot;curved&quot;:0,&quot;rounded&quot;:0};size=65;" vertex="1" parent="1">
          <mxGeometry x="681" y="20" width="150" height="743" as="geometry" />
        </mxCell>
        <mxCell id="28P_qF4lR5tQPxpycGQv-5" value="LLM_API" style="shape=umlLifeline;perimeter=lifelinePerimeter;whiteSpace=wrap;container=1;dropTarget=0;collapsible=0;recursiveResize=0;outlineConnect=0;portConstraint=eastwest;newEdgeStyle={&quot;edgeStyle&quot;:&quot;elbowEdgeStyle&quot;,&quot;elbow&quot;:&quot;vertical&quot;,&quot;curved&quot;:0,&quot;rounded&quot;:0};size=65;" vertex="1" parent="1">
          <mxGeometry x="881" y="20" width="150" height="743" as="geometry" />
        </mxCell>
        <mxCell id="28P_qF4lR5tQPxpycGQv-6" value="Internet_Search" style="shape=umlLifeline;perimeter=lifelinePerimeter;whiteSpace=wrap;container=1;dropTarget=0;collapsible=0;recursiveResize=0;outlineConnect=0;portConstraint=eastwest;newEdgeStyle={&quot;edgeStyle&quot;:&quot;elbowEdgeStyle&quot;,&quot;elbow&quot;:&quot;vertical&quot;,&quot;curved&quot;:0,&quot;rounded&quot;:0};size=65;" vertex="1" parent="1">
          <mxGeometry x="1081" y="20" width="150" height="743" as="geometry" />
        </mxCell>
        <mxCell id="28P_qF4lR5tQPxpycGQv-7" value="Log_DB" style="shape=umlLifeline;perimeter=lifelinePerimeter;whiteSpace=wrap;container=1;dropTarget=0;collapsible=0;recursiveResize=0;outlineConnect=0;portConstraint=eastwest;newEdgeStyle={&quot;edgeStyle&quot;:&quot;elbowEdgeStyle&quot;,&quot;elbow&quot;:&quot;vertical&quot;,&quot;curved&quot;:0,&quot;rounded&quot;:0};size=65;" vertex="1" parent="1">
          <mxGeometry x="1281" y="20" width="150" height="743" as="geometry" />
        </mxCell>
        <mxCell id="28P_qF4lR5tQPxpycGQv-8" value="alt" style="shape=umlFrame;dashed=1;pointerEvents=0;dropTarget=0;strokeColor=#B3B3B3;height=20;width=30" vertex="1" parent="1">
          <mxGeometry x="545" y="305" width="622" height="203" as="geometry" />
        </mxCell>
        <mxCell id="28P_qF4lR5tQPxpycGQv-9" value="[知识库未命中]" style="text;strokeColor=none;fillColor=none;align=center;verticalAlign=middle;whiteSpace=wrap;" vertex="1" parent="28P_qF4lR5tQPxpycGQv-8">
          <mxGeometry x="30" width="592" height="20" as="geometry" />
        </mxCell>
        <mxCell id="28P_qF4lR5tQPxpycGQv-10" value="提问&quot;推免申请截止日期？&quot;" style="verticalAlign=bottom;edgeStyle=elbowEdgeStyle;elbow=vertical;curved=0;rounded=0;endArrow=block;" edge="1" parent="1" source="28P_qF4lR5tQPxpycGQv-1" target="28P_qF4lR5tQPxpycGQv-2">
          <mxGeometry relative="1" as="geometry">
            <Array as="points">
              <mxPoint x="234" y="129" />
            </Array>
          </mxGeometry>
        </mxCell>
        <mxCell id="28P_qF4lR5tQPxpycGQv-11" value="路由请求" style="verticalAlign=bottom;edgeStyle=elbowEdgeStyle;elbow=vertical;curved=0;rounded=0;endArrow=block;" edge="1" parent="1" source="28P_qF4lR5tQPxpycGQv-2" target="28P_qF4lR5tQPxpycGQv-3">
          <mxGeometry relative="1" as="geometry">
            <Array as="points">
              <mxPoint x="465" y="181" />
            </Array>
          </mxGeometry>
        </mxCell>
        <mxCell id="28P_qF4lR5tQPxpycGQv-12" value="检索知识库" style="verticalAlign=bottom;edgeStyle=elbowEdgeStyle;elbow=vertical;curved=0;rounded=0;endArrow=block;" edge="1" parent="1" source="28P_qF4lR5tQPxpycGQv-3" target="28P_qF4lR5tQPxpycGQv-4">
          <mxGeometry relative="1" as="geometry">
            <Array as="points">
              <mxPoint x="665" y="233" />
            </Array>
          </mxGeometry>
        </mxCell>
        <mxCell id="28P_qF4lR5tQPxpycGQv-13" value="返回结构化答案" style="verticalAlign=bottom;edgeStyle=elbowEdgeStyle;elbow=vertical;curved=0;rounded=0;dashed=1;dashPattern=2 3;endArrow=block;" edge="1" parent="1" source="28P_qF4lR5tQPxpycGQv-4" target="28P_qF4lR5tQPxpycGQv-3">
          <mxGeometry relative="1" as="geometry">
            <Array as="points">
              <mxPoint x="668" y="285" />
            </Array>
          </mxGeometry>
        </mxCell>
        <mxCell id="28P_qF4lR5tQPxpycGQv-14" value="生成答案" style="verticalAlign=bottom;edgeStyle=elbowEdgeStyle;elbow=vertical;curved=0;rounded=0;endArrow=block;" edge="1" parent="1" source="28P_qF4lR5tQPxpycGQv-3" target="28P_qF4lR5tQPxpycGQv-5">
          <mxGeometry relative="1" as="geometry">
            <Array as="points">
              <mxPoint x="765" y="384" />
            </Array>
          </mxGeometry>
        </mxCell>
        <mxCell id="28P_qF4lR5tQPxpycGQv-15" value="返回生成结果" style="verticalAlign=bottom;edgeStyle=elbowEdgeStyle;elbow=vertical;curved=0;rounded=0;dashed=1;dashPattern=2 3;endArrow=block;" edge="1" parent="1" source="28P_qF4lR5tQPxpycGQv-5" target="28P_qF4lR5tQPxpycGQv-3">
          <mxGeometry relative="1" as="geometry">
            <Array as="points">
              <mxPoint x="768" y="436" />
            </Array>
          </mxGeometry>
        </mxCell>
        <mxCell id="28P_qF4lR5tQPxpycGQv-16" value="补充检索" style="verticalAlign=bottom;edgeStyle=elbowEdgeStyle;elbow=vertical;curved=0;rounded=0;endArrow=block;" edge="1" parent="1" source="28P_qF4lR5tQPxpycGQv-3" target="28P_qF4lR5tQPxpycGQv-6">
          <mxGeometry relative="1" as="geometry">
            <Array as="points">
              <mxPoint x="865" y="488" />
            </Array>
          </mxGeometry>
        </mxCell>
        <mxCell id="28P_qF4lR5tQPxpycGQv-17" value="整合答案" style="verticalAlign=bottom;edgeStyle=elbowEdgeStyle;elbow=vertical;curved=0;rounded=0;dashed=1;dashPattern=2 3;endArrow=block;" edge="1" parent="1" source="28P_qF4lR5tQPxpycGQv-3" target="28P_qF4lR5tQPxpycGQv-2">
          <mxGeometry relative="1" as="geometry">
            <Array as="points">
              <mxPoint x="468" y="550" />
            </Array>
          </mxGeometry>
        </mxCell>
        <mxCell id="28P_qF4lR5tQPxpycGQv-18" value="返回答案+来源标注" style="verticalAlign=bottom;edgeStyle=elbowEdgeStyle;elbow=vertical;curved=0;rounded=0;dashed=1;dashPattern=2 3;endArrow=block;" edge="1" parent="1" source="28P_qF4lR5tQPxpycGQv-2" target="28P_qF4lR5tQPxpycGQv-1">
          <mxGeometry relative="1" as="geometry">
            <Array as="points">
              <mxPoint x="237" y="604" />
            </Array>
          </mxGeometry>
        </mxCell>
        <mxCell id="28P_qF4lR5tQPxpycGQv-19" value="记录对话(问题/答案/IP)" style="verticalAlign=bottom;edgeStyle=elbowEdgeStyle;elbow=vertical;curved=0;rounded=0;endArrow=block;" edge="1" parent="1" source="28P_qF4lR5tQPxpycGQv-3" target="28P_qF4lR5tQPxpycGQv-7">
          <mxGeometry relative="1" as="geometry">
            <Array as="points">
              <mxPoint x="965" y="658" />
            </Array>
          </mxGeometry>
        </mxCell>
      </root>
    </mxGraphModel>
  </diagram>
</mxfile>
